<svg xmlns="http://www.w3.org/2000/svg" viewBox="0 0 22 22">
  <defs id="defs3051">
    <style type="text/css" id="current-color-scheme">
      .ColorScheme-Text {
        color:#232629;
      }
      </style>
  </defs>
  <g transform="translate(1,1)">
    <!-- Puzzle piece representing plugin/injector -->
    <path style="fill:currentColor;fill-opacity:1;stroke:none"
          d="M 5 3 L 5 6 L 4 6 C 3.44772 6 3 6.44772 3 7 L 3 9 C 3 9.55228 3.44772 10 4 10 L 5 10 L 5 14 L 7 14 L 7 13 C 7 12.4477 7.44772 12 8 12 C 8.55228 12 9 12.4477 9 13 L 9 14 L 15 14 L 15 9 L 16 9 C 16.5523 9 17 8.55228 17 8 C 17 7.44772 16.5523 7 16 7 L 15 7 L 15 3 L 5 3 z M 6 4 L 14 4 L 14 7 L 13 7 C 12.4477 7 12 7.44772 12 8 C 12 8.55228 12.4477 9 13 9 L 14 9 L 14 13 L 10 13 L 10 12 C 10 11.4477 9.55228 11 9 11 C 8.44772 11 8 11.4477 8 12 L 8 13 L 6 13 L 6 4 z "
          class="ColorScheme-Text"/>
    <!-- Injection indicator (arrow into puzzle) -->
    <path style="fill:currentColor;fill-opacity:0.8;stroke:none"
          d="M 11 1 L 11 5 L 12 4 L 13 5 L 13 2 L 11 2 z "
          class="ColorScheme-Text"/>
  </g>
</svg>
