<?xml version="1.0" encoding="UTF-8" standalone="no"?>
<!DOCTYPE svg PUBLIC "-//W3C//DTD SVG 1.1//EN" "http://www.w3.org/Graphics/SVG/1.1/DTD/svg11.dtd">
<svg width="100%" height="100%" viewBox="0 0 3000 1250" version="1.1" xmlns="http://www.w3.org/2000/svg" xmlns:xlink="http://www.w3.org/1999/xlink" xml:space="preserve" xmlns:serif="http://www.serif.com/" style="fill-rule:evenodd;clip-rule:evenodd;stroke-linecap:round;stroke-linejoin:round;stroke-miterlimit:1;">
    <g id="Icon" transform="matrix(1,0,0,1,-880.776425,-10.255937)">
        <g id="Cube" transform="matrix(1,0,0,1,875,0)">
            <g transform="matrix(1.211205,0,0,1.183148,-469.762539,-193.794343)">
                <path d="M853.515,221.737C871.069,213.47 891.28,213.488 908.821,221.785C981.267,256.052 1176.769,348.526 1259.864,387.83C1283.168,398.853 1298.123,422.702 1298.209,448.983C1298.557,554.349 1299.445,824.107 1299.792,929.285C1299.878,955.473 1285.186,979.357 1262.079,990.591C1179.126,1030.922 982.888,1126.333 909.514,1162.007C891.583,1170.725 870.773,1170.725 852.842,1162.007C779.427,1126.313 583.008,1030.814 500.137,990.523C477.103,979.323 462.423,955.55 462.423,929.445L462.423,449.224C462.423,422.819 477.438,398.83 500.871,387.795C584.418,348.453 780.847,255.956 853.515,221.737Z" style="fill:rgb(135,92,60);stroke:rgb(80,55,34);stroke-width:32.74px;"/>
            </g>
            <path d="M90.327,523.768L90.327,320.594L120.723,273.272L366.075,160.112L597.439,61.233L728.702,98.389L863.979,176.572L1002.343,226.98L1063.038,272.244L1104.723,348.884L1104.723,562.859L597.525,792.685L172.16,670.362L90.327,523.768Z" style="fill:rgb(113,166,79);stroke:rgb(134,91,56);stroke-width:0.6px;"/>
            <path d="M1080.886,305.058L597.525,531.998L110.364,303.62L100.884,294.14L159.3,255.27L415.454,137.995L591.366,61.233L1046.579,257.841L1080.886,305.058Z" style="fill:rgb(113,166,44);stroke:rgb(134,91,56);stroke-width:0.6px;"/>
            <g>
                <path d="M862.17,510.406L862.515,555.625L862.687,570.554L996.187,509.802L994.806,491.68L995.669,448.754L960.374,361.201L862.17,510.406Z" style="fill:rgb(91,134,62);stroke:rgb(91,134,62);stroke-width:0.6px;"/>
                <path d="M896.857,538.687L862.855,555.491L863.162,599.261L896.299,584.966L896.857,538.687Z" style="fill:rgb(74,121,69);stroke:rgb(74,121,69);stroke-width:0.6px;"/>
                <g transform="matrix(1,0,0,1,66.413346,-30.287082)">
                    <path d="M896.857,538.687L862.855,555.491L863.162,599.261L896.299,584.966L896.857,538.687Z" style="fill:rgb(77,114,66);stroke:rgb(77,114,66);stroke-width:0.6px;"/>
                </g>
                <path d="M234.122,360.941L265.472,432.405L263.112,551.231L293.619,551.062L332.553,508.4L420.535,448.754L234.122,360.941Z" style="fill:rgb(105,158,78);stroke:rgb(105,158,78);stroke-width:0.6px;"/>
                <path d="M420.535,448.754L465.874,573.647L467.896,631.29L318.564,568.974L332.385,508.4L420.535,448.754Z" style="fill:rgb(131,181,83);stroke:rgb(131,181,83);stroke-width:0.6px;"/>
                <path d="M597.525,531.803L597.525,704.958L467.896,631.29L464.96,571.52L420.535,448.754L597.525,531.803Z" style="fill:rgb(102,157,74);stroke:rgb(102,157,74);stroke-width:0.6px;"/>
                <path d="M597.525,399.342L418.428,449.923L597.525,532.656L772.615,449.923L597.525,399.342Z" style="fill:rgb(106,165,74);stroke:rgb(151,197,89);stroke-width:0.6px;"/>
                <path d="M597.525,399.342L597.525,532.235L771.624,450.135L597.525,399.342Z" style="fill:rgb(151,197,89);stroke:rgb(151,197,89);stroke-width:0.6px;"/>
                <path d="M772.615,449.923L697.145,631.29L693.774,655.168L597.525,704.958L597.525,532.235L772.615,449.923Z" style="fill:rgb(92,134,63);stroke:rgb(92,134,63);stroke-width:0.6px;"/>
                <path d="M960.248,361.679L772.615,449.923L696.729,632.512L700.982,689.122L788.41,657.089L845.611,561.021L862.635,509.614L960.248,361.679Z" style="fill:rgb(69,116,64);stroke:rgb(69,116,64);stroke-width:0.6px;"/>
                <path d="M995.449,448.754L1085.34,303.134L960.248,361.679L995.449,448.754Z" style="fill:rgb(70,117,63);stroke:rgb(70,117,63);stroke-width:0.6px;"/>
                <path d="M995.449,448.754L1001.517,494.782L1104.723,463.601L1104.552,295.223L1078.711,313.594L995.449,448.754Z" style="fill:rgb(66,114,62);stroke:rgb(66,114,62);stroke-width:0.6px;"/>
                <path d="M234.835,361.679L103.558,298.872L90.327,402.427L109.487,404.688L167.089,430.145L165.795,475.019L164.932,490.121L232.944,514.499L265.466,432.518L234.835,361.679Z" style="fill:rgb(113,167,79);stroke:rgb(113,167,79);stroke-width:0.6px;"/>
                <path d="M378.889,292.008L234.835,361.679L94.33,295.223L378.889,292.008Z" style="fill:rgb(130,178,79);stroke:rgb(130,178,79);stroke-width:0.6px;"/>
                <path d="M378.889,292.008L350.651,173.087L106.68,282.853L99.096,296.126L378.889,292.008Z" style="fill:rgb(158,194,105);stroke:rgb(158,194,105);stroke-width:0.6px;"/>
                <path d="M597.439,183.832L378.889,292.008L352.548,177.933L597.439,183.832Z" style="fill:rgb(112,168,79);stroke:rgb(112,168,79);stroke-width:0.6px;"/>
                <path d="M597.439,61.233L352.548,177.933L597.439,183.832L597.439,61.233Z" style="fill:rgb(151,196,91);stroke:rgb(151,196,91);stroke-width:0.6px;"/>
                <path d="M378.889,292.008L597.439,399.571L420.535,450.135L378.889,292.008Z" style="fill:rgb(131,176,81);stroke:rgb(131,176,81);stroke-width:0.6px;"/>
                <path d="M234.122,360.941L420.535,448.754L378.889,292.008L234.122,360.941Z" style="fill:rgb(148,195,89);stroke:rgb(148,195,89);stroke-width:0.6px;"/>
                <path d="M597.439,183.87L378.889,292.008L597.525,399.609L597.439,183.87Z" style="fill:rgb(149,194,89);stroke:rgb(149,194,89);stroke-width:0.6px;"/>
                <path d="M597.525,184.13L889.614,194.227L597.525,57.095L597.525,184.13Z" style="fill:rgb(107,162,75);stroke:rgb(107,162,75);stroke-width:0.6px;"/>
                <path d="M167.252,430.68L165.902,475.535L133.64,459.028L134.071,414.931L167.252,430.68Z" style="fill:rgb(143,189,91);stroke:rgb(143,189,91);stroke-width:0.6px;"/>
                <g transform="matrix(1,0,0,1,199.147475,139.732671)">
                    <path d="M167.252,430.68L165.902,475.535L133.64,459.028L134.071,414.931L167.252,430.68Z" style="fill:rgb(113,169,78);stroke:rgb(113,169,78);stroke-width:0.6px;"/>
                </g>
                <g transform="matrix(1,0,0,1,264.408776,170.03467)">
                    <path d="M167.252,430.68L165.902,475.535L133.64,459.028L134.071,414.931L167.252,430.68Z" style="fill:rgb(113,169,78);stroke:rgb(113,169,78);stroke-width:0.6px;"/>
                </g>
                <g transform="matrix(1,0,0,1,65.423843,77.291551)">
                    <path d="M167.468,430.356L167.52,476.182L133.64,459.028L134.071,414.931L167.468,430.356Z" style="fill:rgb(143,189,91);stroke:rgb(143,189,91);stroke-width:0.6px;"/>
                </g>
                <path d="M597.439,399.342L771.624,451.493L960.248,361.679L881.38,196.217L597.439,399.342Z" style="fill:rgb(103,161,75);stroke:rgb(103,161,75);stroke-width:0.6px;"/>
                <path d="M959.563,361.224L1104.552,295.969L879.966,194.836L959.563,361.224Z" style="fill:rgb(131,178,84);stroke:rgb(127,174,78);stroke-width:0.6px;"/>
                <path d="M597.525,184.13L597.525,399.342L891.774,194.836L597.525,184.13Z" style="fill:rgb(131,178,84);stroke:rgb(103,161,75);stroke-width:0.6px;"/>
            </g>
            <path d="M90.327,396.602L134.489,415.298L133.837,459.456L199.576,492.421L199.323,537.676L233.454,554.109L232.948,417.839L265.562,433.261L266.068,522.76L298.429,537.929L299.693,494.191L332.813,509.107L332.813,600.881L365.68,615.545L366.185,569.784L398.293,585.712L398.049,629.855L431.661,647.367L431.413,602.145L465.038,617.062L464.28,571.301L497.399,585.965L498.158,630.967L564.397,662.822L564.65,617.82L597.439,632.737L597.439,678.245L631.394,663.075L631.394,618.579L664.008,603.409L664.767,647.4L729.995,616.809L731.006,662.317L765.39,647.906L763.873,511.383L796.234,496.466L796.992,584.954L829.859,570.29L829.859,525.793L862.726,509.866L862.979,599.112L896.098,584.701L896.857,538.687L929.218,523.771L929.218,568.267L962.843,554.362L962.59,508.096L994.698,491.915L995.71,448.43L1027.312,430.733L1028.829,476.493L1104.723,443.374L1104.723,913.164L1090.848,958.47L1040.975,989.208L597.439,1188.767L102.278,950.692L90.327,716.635L90.327,396.602Z" style="fill:rgb(105,73,50);stroke:rgb(105,73,50);stroke-width:0.6px;"/>
            <g>
                <path d="M462.625,715.588L464.662,662.955L597.525,864.706L597.525,1191.35L427.751,1121.909L462.625,715.588Z" style="fill:rgb(134,91,56);stroke:rgb(134,91,56);stroke-width:0.6px;"/>
                <path d="M267.141,788.077L115.351,952.574L90.327,924.98L90.327,675.174" style="fill:rgb(115,80,55);stroke:rgb(115,80,55);stroke-width:0.6px;"/>
                <path d="M98.762,489.243L199.323,537.676L233.01,554.47L267.141,788.077L90.327,674.055L81.739,669.098L80.186,594.331L79.461,485.598L79.875,478.763L98.762,489.243Z" style="fill:rgb(162,110,70);stroke:rgb(162,110,70);stroke-width:0.6px;"/>
                <path d="M267.141,788.077L425.615,1110.197L352.533,1089.702L206.638,1008.664L122.634,967.404L110.364,952.574L267.141,788.077Z" style="fill:rgb(135,92,60);stroke:rgb(135,92,60);stroke-width:0.6px;"/>
                <path d="M462.625,715.588L267.141,788.077L429.196,1117.092L462.625,715.588Z" style="fill:rgb(158,109,69);stroke:rgb(158,109,69);stroke-width:0.6px;"/>
                <path d="M398.454,631.312L233.326,554.664L267.141,788.077L462.625,715.588L398.454,631.312Z" style="fill:rgb(137,94,59);stroke:rgb(137,94,59);stroke-width:0.6px;"/>
                <path d="M464.67,662.971L597.525,725.967L597.525,864.364L464.67,662.971Z" style="fill:rgb(160,112,70);stroke:rgb(160,112,70);stroke-width:0.6px;"/>
                <path d="M826.485,872.758L597.525,864.364L597.525,725.731L731.452,661.44L826.485,872.758Z" style="fill:rgb(118,82,59);stroke:rgb(118,82,59);stroke-width:0.6px;"/>
                <path d="M597.525,1191.35L826.485,872.758L597.525,864.364" style="fill:rgb(103,69,41);stroke:rgb(103,69,41);stroke-width:0.6px;"/>
                <path d="M826.485,872.758L731.587,661.44L765.07,647.979L930.095,569.548L962.488,608.261L1005.151,655.138L826.485,872.758Z" style="fill:rgb(103,67,49);stroke:rgb(103,67,44);stroke-width:0.6px;"/>
                <g transform="matrix(2.767426,0,0,2.767426,-1460.750823,-1542.534208)">
                    <path d="M826.485,872.758L891.045,917.729L751.44,987.88L743.751,991.069L743.72,986.947L749.49,979.312L826.485,872.758Z" style="fill:rgb(89,60,43);stroke:rgb(89,60,43);stroke-width:0.22px;"/>
                </g>
                <path d="M826.485,872.758L1005.151,997.211L1104.552,936.281L1104.552,907.147L1104.723,488.543L1084.336,496.549L930.537,569.548L1005.151,655.404L826.485,872.758Z" style="fill:rgb(100,62,45);stroke:rgb(100,62,45);stroke-width:0.6px;"/>
                <path d="M826.485,872.758L1005.151,655.615L1113.561,547.205L1115.787,661.936L1115.787,932.243L1095.562,961.317L1027.932,997.211L1005.151,997.211L826.485,872.758Z" style="fill:rgb(103,67,59);stroke:rgb(103,67,59);stroke-width:0.6px;"/>
            </g>
            <g transform="matrix(1.211205,0,0,1.183148,-469.762539,-193.794343)">
                <path d="M853.515,221.737C871.069,213.47 891.28,213.488 908.821,221.785C981.267,256.052 1176.769,348.526 1259.864,387.83C1283.168,398.853 1298.123,422.702 1298.209,448.983C1298.557,554.349 1299.445,824.107 1299.792,929.285C1299.878,955.473 1285.186,979.357 1262.079,990.591C1179.126,1030.922 982.888,1126.333 909.514,1162.007C891.583,1170.725 870.773,1170.725 852.842,1162.007C779.427,1126.313 583.008,1030.814 500.137,990.523C477.103,979.323 462.423,955.55 462.423,929.445L462.423,449.224C462.423,422.819 477.438,398.83 500.871,387.795C584.418,348.453 780.847,255.956 853.515,221.737Z" style="fill:none;stroke:rgb(80,55,34);stroke-width:32.74px;"/>
            </g>
        </g>
        <g id="Luna" transform="matrix(1,0,0,1,875,0)">
            <path d="M631.284,1069.574C631.284,1069.574 648.476,1094.856 651.813,1098.598C655.15,1102.34 675.78,1134.195 734.03,1171.006C792.28,1207.817 858.014,1212.368 858.014,1212.368C858.014,1212.368 935.928,1220.502 995.183,1191.467C1054.438,1162.432 1047.525,1164.408 1057.204,1158.087C1066.882,1151.766 1097.299,1131.422 1120.211,1096.264C1143.123,1061.106 1152.802,1044.12 1164.258,1008.172C1175.713,972.224 1179.861,963.138 1180.849,929.758C1181.836,896.378 1182.034,880.971 1173.936,854.109C1165.838,827.247 1156.357,796.829 1143.123,772.337C1129.89,747.845 1108.607,722.389 1093.3,706.094C1077.992,689.799 1046.636,666.591 1016.762,648.568C986.888,630.544 953.804,625.875 946.644,625C939.484,624.125 923.929,624.866 915.041,633.013C906.153,641.161 907.14,652.024 906.894,653.012C906.647,653.999 906.647,669.307 911.091,674.985C915.535,680.664 922.695,694.243 925.904,700.169C929.114,706.094 940.224,731.031 940.224,731.031C940.224,731.031 946.891,747.82 948.125,766.337C949.36,784.854 950.1,802.137 949.606,805.346C949.113,808.556 950.1,826.826 945.656,848.306C941.212,869.786 935.78,879.909 935.78,879.909L923.436,904.351L906.153,929.535C906.153,929.535 897.511,945.83 874.056,964.594C850.601,983.358 856.033,980.148 856.033,980.148L836.281,991.753L814.555,1001.381L790.112,1010.517C790.112,1010.517 778.261,1016.442 760.978,1018.664C743.696,1020.886 733.079,1021.874 714.562,1019.899C696.045,1017.923 671.849,1011.504 671.849,1011.504C671.849,1011.504 662.941,1008.778 655.761,1008.778C648.581,1008.778 640.491,1007.362 634.423,1012.216C628.355,1017.07 626.903,1018.183 625,1024.25C623.097,1030.318 621.984,1035.476 622.894,1043.06C623.805,1050.645 623.667,1052.465 625,1057.016C626.333,1061.567 631.284,1069.574 631.284,1069.574Z" style="fill:rgb(250,250,240);stroke:rgb(80,53,35);stroke-width:39.2px;"/>
            <g>
                <path d="M630.47,1026.471L779.017,1119.467L848.559,998.489L630.47,1026.471Z" style="fill:rgb(253,252,244);stroke:rgb(253,252,244);stroke-width:0.6px;"/>
                <path d="M779.017,1119.467L946.38,1087.018L841.612,1010.027L779.017,1119.467Z" style="fill:rgb(250,241,212);stroke:rgb(250,241,212);stroke-width:0.6px;"/>
                <path d="M946.38,1087.018L932.024,923.748L838.27,999.857L842.484,1010.128L946.38,1087.018Z" style="fill:rgb(252,241,214);stroke:rgb(252,241,214);stroke-width:0.6px;"/>
                <path d="M1068.212,903.929L946.38,1087.018L932.059,927.894L1068.212,903.929Z" style="fill:rgb(252,241,214);stroke:rgb(252,241,214);stroke-width:0.6px;"/>
                <path d="M946.082,1087.783L779.017,1119.467L871.603,1199.296L946.082,1087.783Z" style="fill:rgb(255,238,161);stroke:rgb(255,238,161);stroke-width:0.6px;"/>
                <path d="M714.002,1149.506L779.017,1119.467L630.47,1027.293L627.55,1068.854L714.002,1149.506Z" style="fill:rgb(234,229,210);stroke:rgb(234,229,210);stroke-width:0.6px;"/>
                <path d="M871.487,1199.296L841.992,1209.682L766.146,1187.824L714.002,1149.506L779.017,1119.467L871.487,1199.296Z" style="fill:rgb(250,219,166);stroke:rgb(250,219,166);stroke-width:0.6px;"/>
                <path d="M871.487,1209.682L871.487,1199.296L946.082,1087.783L1119.303,1075.109L1133.524,1087.783L1055.045,1169.389L965.768,1199.296L871.487,1209.682Z" style="fill:rgb(221,210,188);stroke:rgb(221,210,188);stroke-width:0.6px;"/>
                <path d="M1116.669,1075.109L1069.266,903.929L946.082,1088.4L1116.669,1075.109Z" style="fill:rgb(251,218,157);stroke:rgb(251,218,157);stroke-width:0.6px;"/>
                <path d="M1069.266,903.929L1171.184,938.692L1175.134,961.867L1150.642,1041.136L1116.669,1075.109L1069.266,903.929Z" style="fill:rgb(252,240,161);stroke:rgb(252,240,161);stroke-width:0.6px;"/>
                <path d="M1171.184,938.692L1169.077,838.09L1147.218,789.633L1136.684,796.217L1069.266,903.929L1171.184,938.692Z" style="fill:rgb(242,232,196);stroke:rgb(242,232,196);stroke-width:0.6px;"/>
                <path d="M1147.218,789.633L1062.155,673.231L1031.376,662.434L1031.376,745.127L1136.684,796.744L1147.218,789.633Z" style="fill:rgb(249,248,218);stroke:rgb(249,248,218);stroke-width:0.6px;"/>
                <path d="M923.631,630.305L1031.376,662.434L1031.376,744.863L924.158,639.208L923.631,630.305Z" style="fill:rgb(227,222,203);stroke:rgb(227,222,203);stroke-width:0.6px;"/>
                <path d="M906.777,652.953L946.082,755.134L953.917,815.179L958.131,835.194L1031.376,744.863L923.631,639.208L906.777,652.953Z" style="fill:rgb(251,240,212);stroke:rgb(251,240,212);stroke-width:0.6px;"/>
                <path d="M1069.266,903.929L1031.376,744.863L1137.211,796.744L1069.266,903.929Z" style="fill:rgb(225,222,207);stroke:rgb(225,222,207);stroke-width:0.6px;"/>
                <path d="M836.198,1007.69L946.28,1085.643L932.059,927.894L836.198,1007.69Z" style="fill:rgb(255,252,243);stroke:rgb(255,252,243);stroke-width:0.6px;"/>
                <path d="M957.604,835.194L932.059,927.894L1068.212,903.929L1031.376,744.863L957.604,835.194Z" style="fill:rgb(254,251,242);stroke:rgb(254,251,242);stroke-width:0.6px;"/>
            </g>
            <path d="M631.284,1069.574C631.284,1069.574 648.476,1094.856 651.813,1098.598C655.15,1102.34 675.78,1134.195 734.03,1171.006C792.28,1207.817 858.014,1212.368 858.014,1212.368C858.014,1212.368 935.928,1220.502 995.183,1191.467C1054.438,1162.432 1047.525,1164.408 1057.204,1158.087C1066.882,1151.766 1097.299,1131.422 1120.211,1096.264C1143.123,1061.106 1152.802,1044.12 1164.258,1008.172C1175.713,972.224 1179.861,963.138 1180.849,929.758C1181.836,896.378 1182.034,880.971 1173.936,854.109C1165.838,827.247 1156.357,796.829 1143.123,772.337C1129.89,747.845 1108.607,722.389 1093.3,706.094C1077.992,689.799 1046.636,666.591 1016.762,648.568C986.888,630.544 953.804,625.875 946.644,625C939.484,624.125 923.929,624.866 915.041,633.013C906.153,641.161 907.14,652.024 906.894,653.012C906.647,653.999 906.647,669.307 911.091,674.985C915.535,680.664 922.695,694.243 925.904,700.169C929.114,706.094 940.224,731.031 940.224,731.031C940.224,731.031 946.891,747.82 948.125,766.337C949.36,784.854 950.1,802.137 949.606,805.346C949.113,808.556 950.1,826.826 945.656,848.306C941.212,869.786 935.78,879.909 935.78,879.909L923.436,904.351L906.153,929.535C906.153,929.535 897.511,945.83 874.056,964.594C850.601,983.358 856.033,980.148 856.033,980.148L836.281,991.753L814.555,1001.381L790.112,1010.517C790.112,1010.517 778.261,1016.442 760.978,1018.664C743.696,1020.886 733.079,1021.874 714.562,1019.899C696.045,1017.923 671.849,1011.504 671.849,1011.504C671.849,1011.504 662.941,1008.778 655.761,1008.778C648.581,1008.778 640.491,1007.362 634.423,1012.216C628.355,1017.07 626.903,1018.183 625,1024.25C623.097,1030.318 621.984,1035.476 622.894,1043.06C623.805,1050.645 623.667,1052.465 625,1057.016C626.333,1061.567 631.284,1069.574 631.284,1069.574Z" style="fill:none;stroke:rgb(80,53,35);stroke-width:39.2px;"/>
        </g>
    </g>
    <g transform="matrix(0.948258,0,0,0.948258,184.708757,55.152166)">
        <g transform="matrix(439.254427,0,0,439.254427,1199.3769,554.906542)">
            <path d="M0.46,-0.07L0.46,-0L0.091,-0L0.091,-0.619L0.173,-0.619L0.173,-0.07L0.46,-0.07Z" style="fill:rgb(50,48,48);fill-rule:nonzero;"/>
        </g>
        <g transform="matrix(439.254427,0,0,439.254427,1419.004113,554.906542)">
            <path d="M0.429,-0.013C0.411,-0.008 0.387,-0.003 0.357,0.002C0.328,0.007 0.293,0.01 0.253,0.01C0.218,0.01 0.188,0.005 0.165,-0.005C0.142,-0.016 0.123,-0.03 0.108,-0.05C0.093,-0.069 0.083,-0.091 0.077,-0.117C0.071,-0.143 0.068,-0.172 0.068,-0.203L0.068,-0.464L0.15,-0.464L0.15,-0.221C0.15,-0.164 0.159,-0.123 0.176,-0.099C0.193,-0.075 0.221,-0.063 0.261,-0.063C0.27,-0.063 0.279,-0.063 0.288,-0.064C0.296,-0.065 0.305,-0.066 0.313,-0.067C0.321,-0.068 0.328,-0.069 0.334,-0.07C0.34,-0.071 0.344,-0.071 0.346,-0.072L0.346,-0.464L0.429,-0.464L0.429,-0.013Z" style="fill:rgb(50,48,48);fill-rule:nonzero;"/>
        </g>
        <g transform="matrix(439.254427,0,0,439.254427,1638.631326,554.906542)">
            <path d="M0.071,-0.451C0.101,-0.458 0.131,-0.464 0.161,-0.468C0.19,-0.472 0.218,-0.474 0.244,-0.474C0.306,-0.474 0.353,-0.458 0.385,-0.426C0.416,-0.394 0.432,-0.343 0.432,-0.272L0.432,-0L0.35,-0L0.35,-0.257C0.35,-0.287 0.347,-0.311 0.342,-0.33C0.337,-0.349 0.329,-0.363 0.32,-0.373C0.31,-0.384 0.298,-0.391 0.285,-0.395C0.271,-0.399 0.256,-0.401 0.24,-0.401C0.227,-0.401 0.212,-0.4 0.198,-0.399C0.183,-0.397 0.168,-0.395 0.154,-0.392L0.154,-0L0.071,-0L0.071,-0.451Z" style="fill:rgb(50,48,48);fill-rule:nonzero;"/>
        </g>
        <g transform="matrix(439.254427,0,0,439.254427,1858.25854,554.906542)">
            <path d="M0.255,-0.059C0.276,-0.059 0.294,-0.06 0.31,-0.061C0.327,-0.062 0.34,-0.064 0.351,-0.066L0.351,-0.204C0.34,-0.207 0.328,-0.21 0.312,-0.212C0.297,-0.214 0.282,-0.215 0.265,-0.215C0.25,-0.215 0.235,-0.214 0.22,-0.211C0.205,-0.209 0.192,-0.205 0.181,-0.199C0.17,-0.193 0.16,-0.185 0.153,-0.176C0.146,-0.166 0.142,-0.154 0.142,-0.139C0.142,-0.109 0.152,-0.088 0.173,-0.076C0.193,-0.065 0.22,-0.059 0.255,-0.059ZM0.247,-0.475C0.282,-0.475 0.311,-0.471 0.335,-0.462C0.358,-0.453 0.377,-0.441 0.392,-0.426C0.407,-0.411 0.417,-0.392 0.423,-0.37C0.429,-0.348 0.432,-0.324 0.432,-0.298L0.432,-0.008C0.413,-0.005 0.387,-0.001 0.355,0.004C0.324,0.009 0.291,0.011 0.258,0.011C0.233,0.011 0.208,0.009 0.184,0.005C0.16,0 0.139,-0.007 0.12,-0.018C0.101,-0.03 0.086,-0.045 0.075,-0.064C0.064,-0.083 0.058,-0.108 0.058,-0.138C0.058,-0.165 0.064,-0.187 0.075,-0.206C0.087,-0.224 0.102,-0.239 0.12,-0.25C0.139,-0.261 0.16,-0.27 0.183,-0.275C0.207,-0.28 0.231,-0.282 0.255,-0.282C0.288,-0.282 0.32,-0.278 0.351,-0.271L0.351,-0.294C0.351,-0.308 0.35,-0.322 0.347,-0.335C0.343,-0.347 0.338,-0.359 0.33,-0.37C0.321,-0.381 0.31,-0.389 0.295,-0.396C0.281,-0.402 0.263,-0.405 0.24,-0.405C0.211,-0.405 0.186,-0.403 0.165,-0.399C0.144,-0.395 0.127,-0.391 0.116,-0.387L0.106,-0.455C0.117,-0.46 0.136,-0.465 0.163,-0.469C0.189,-0.473 0.217,-0.475 0.247,-0.475Z" style="fill:rgb(50,48,48);fill-rule:nonzero;"/>
        </g>
        <g transform="matrix(439.254427,0,0,439.254427,1199.3769,994.160969)">
            <path d="M0.46,-0.07L0.46,-0L0.091,-0L0.091,-0.619L0.173,-0.619L0.173,-0.07L0.46,-0.07Z" style="fill:rgb(50,48,48);fill-rule:nonzero;"/>
        </g>
        <g transform="matrix(439.254427,0,0,439.254427,1419.004113,994.160969)">
            <path d="M0.255,-0.059C0.276,-0.059 0.294,-0.06 0.31,-0.061C0.327,-0.062 0.34,-0.064 0.351,-0.066L0.351,-0.204C0.34,-0.207 0.328,-0.21 0.312,-0.212C0.297,-0.214 0.282,-0.215 0.265,-0.215C0.25,-0.215 0.235,-0.214 0.22,-0.211C0.205,-0.209 0.192,-0.205 0.181,-0.199C0.17,-0.193 0.16,-0.185 0.153,-0.176C0.146,-0.166 0.142,-0.154 0.142,-0.139C0.142,-0.109 0.152,-0.088 0.173,-0.076C0.193,-0.065 0.22,-0.059 0.255,-0.059ZM0.247,-0.475C0.282,-0.475 0.311,-0.471 0.335,-0.462C0.358,-0.453 0.377,-0.441 0.392,-0.426C0.407,-0.411 0.417,-0.392 0.423,-0.37C0.429,-0.348 0.432,-0.324 0.432,-0.298L0.432,-0.008C0.413,-0.005 0.387,-0.001 0.355,0.004C0.324,0.009 0.291,0.011 0.258,0.011C0.233,0.011 0.208,0.009 0.184,0.005C0.16,0 0.139,-0.007 0.12,-0.018C0.101,-0.03 0.086,-0.045 0.075,-0.064C0.064,-0.083 0.058,-0.108 0.058,-0.138C0.058,-0.165 0.064,-0.187 0.075,-0.206C0.087,-0.224 0.102,-0.239 0.12,-0.25C0.139,-0.261 0.16,-0.27 0.183,-0.275C0.207,-0.28 0.231,-0.282 0.255,-0.282C0.288,-0.282 0.32,-0.278 0.351,-0.271L0.351,-0.294C0.351,-0.308 0.35,-0.322 0.347,-0.335C0.343,-0.347 0.338,-0.359 0.33,-0.37C0.321,-0.381 0.31,-0.389 0.295,-0.396C0.281,-0.402 0.263,-0.405 0.24,-0.405C0.211,-0.405 0.186,-0.403 0.165,-0.399C0.144,-0.395 0.127,-0.391 0.116,-0.387L0.106,-0.455C0.117,-0.46 0.136,-0.465 0.163,-0.469C0.189,-0.473 0.217,-0.475 0.247,-0.475Z" style="fill:rgb(50,48,48);fill-rule:nonzero;"/>
        </g>
        <g transform="matrix(439.254427,0,0,439.254427,1638.631326,994.160969)">
            <path d="M0.429,-0.013C0.411,-0.008 0.387,-0.003 0.357,0.002C0.328,0.007 0.293,0.01 0.253,0.01C0.218,0.01 0.188,0.005 0.165,-0.005C0.142,-0.016 0.123,-0.03 0.108,-0.05C0.093,-0.069 0.083,-0.091 0.077,-0.117C0.071,-0.143 0.068,-0.172 0.068,-0.203L0.068,-0.464L0.15,-0.464L0.15,-0.221C0.15,-0.164 0.159,-0.123 0.176,-0.099C0.193,-0.075 0.221,-0.063 0.261,-0.063C0.27,-0.063 0.279,-0.063 0.288,-0.064C0.296,-0.065 0.305,-0.066 0.313,-0.067C0.321,-0.068 0.328,-0.069 0.334,-0.07C0.34,-0.071 0.344,-0.071 0.346,-0.072L0.346,-0.464L0.429,-0.464L0.429,-0.013Z" style="fill:rgb(50,48,48);fill-rule:nonzero;"/>
        </g>
        <g transform="matrix(439.254427,0,0,439.254427,1858.25854,994.160969)">
            <path d="M0.071,-0.451C0.101,-0.458 0.131,-0.464 0.161,-0.468C0.19,-0.472 0.218,-0.474 0.244,-0.474C0.306,-0.474 0.353,-0.458 0.385,-0.426C0.416,-0.394 0.432,-0.343 0.432,-0.272L0.432,-0L0.35,-0L0.35,-0.257C0.35,-0.287 0.347,-0.311 0.342,-0.33C0.337,-0.349 0.329,-0.363 0.32,-0.373C0.31,-0.384 0.298,-0.391 0.285,-0.395C0.271,-0.399 0.256,-0.401 0.24,-0.401C0.227,-0.401 0.212,-0.4 0.198,-0.399C0.183,-0.397 0.168,-0.395 0.154,-0.392L0.154,-0L0.071,-0L0.071,-0.451Z" style="fill:rgb(50,48,48);fill-rule:nonzero;"/>
        </g>
        <g transform="matrix(439.254427,0,0,439.254427,2077.885753,994.160969)">
            <path d="M0.049,-0.231C0.049,-0.273 0.056,-0.309 0.069,-0.34C0.082,-0.371 0.101,-0.396 0.124,-0.416C0.147,-0.436 0.175,-0.451 0.206,-0.461C0.237,-0.47 0.27,-0.475 0.305,-0.475C0.328,-0.475 0.35,-0.474 0.372,-0.471C0.395,-0.468 0.419,-0.462 0.444,-0.454L0.425,-0.383C0.403,-0.391 0.383,-0.396 0.364,-0.399C0.346,-0.401 0.328,-0.402 0.309,-0.402C0.285,-0.402 0.262,-0.399 0.241,-0.393C0.22,-0.386 0.201,-0.376 0.185,-0.362C0.17,-0.349 0.157,-0.331 0.148,-0.309C0.139,-0.288 0.134,-0.262 0.134,-0.231C0.134,-0.202 0.138,-0.176 0.147,-0.155C0.156,-0.134 0.168,-0.117 0.183,-0.104C0.199,-0.09 0.218,-0.08 0.24,-0.073C0.262,-0.066 0.286,-0.063 0.313,-0.063C0.334,-0.063 0.355,-0.064 0.374,-0.067C0.394,-0.069 0.416,-0.074 0.439,-0.082L0.451,-0.013C0.428,-0.004 0.404,0.002 0.38,0.005C0.356,0.009 0.33,0.011 0.302,0.011C0.265,0.011 0.231,0.006 0.2,-0.005C0.169,-0.015 0.142,-0.03 0.12,-0.05C0.097,-0.07 0.08,-0.095 0.068,-0.126C0.055,-0.156 0.049,-0.191 0.049,-0.231Z" style="fill:rgb(50,48,48);fill-rule:nonzero;"/>
        </g>
        <g transform="matrix(439.254427,0,0,439.254427,2297.512967,994.160969)">
            <path d="M0.071,-0L0.071,-0.679L0.154,-0.693L0.154,-0.457C0.167,-0.462 0.182,-0.467 0.199,-0.47C0.216,-0.472 0.232,-0.474 0.248,-0.474C0.283,-0.474 0.313,-0.469 0.337,-0.459C0.36,-0.448 0.379,-0.434 0.393,-0.415C0.407,-0.396 0.417,-0.374 0.423,-0.348C0.429,-0.322 0.432,-0.293 0.432,-0.262L0.432,-0L0.35,-0L0.35,-0.244C0.35,-0.301 0.342,-0.342 0.326,-0.365C0.31,-0.389 0.281,-0.401 0.24,-0.401C0.223,-0.401 0.206,-0.399 0.19,-0.396C0.173,-0.392 0.161,-0.388 0.154,-0.385L0.154,-0L0.071,-0Z" style="fill:rgb(50,48,48);fill-rule:nonzero;"/>
        </g>
        <g transform="matrix(439.254427,0,0,439.254427,2517.14018,994.160969)">
            <path d="M0.259,-0.475C0.322,-0.475 0.37,-0.456 0.404,-0.416C0.438,-0.377 0.455,-0.318 0.455,-0.239L0.455,-0.21L0.123,-0.21C0.126,-0.162 0.142,-0.126 0.171,-0.101C0.199,-0.075 0.239,-0.063 0.29,-0.063C0.319,-0.063 0.344,-0.065 0.365,-0.07C0.386,-0.075 0.401,-0.08 0.412,-0.085L0.423,-0.015C0.413,-0.01 0.395,-0.004 0.369,0.002C0.343,0.008 0.314,0.011 0.281,0.011C0.241,0.011 0.206,0.005 0.176,-0.007C0.145,-0.02 0.12,-0.037 0.1,-0.058C0.08,-0.079 0.065,-0.105 0.055,-0.135C0.045,-0.164 0.04,-0.196 0.04,-0.231C0.04,-0.272 0.046,-0.308 0.059,-0.339C0.072,-0.37 0.088,-0.395 0.109,-0.415C0.13,-0.435 0.153,-0.45 0.179,-0.46C0.205,-0.47 0.232,-0.475 0.259,-0.475ZM0.371,-0.277C0.371,-0.316 0.361,-0.347 0.34,-0.37C0.319,-0.394 0.292,-0.405 0.258,-0.405C0.239,-0.405 0.221,-0.401 0.206,-0.394C0.19,-0.387 0.176,-0.377 0.165,-0.365C0.154,-0.353 0.145,-0.339 0.138,-0.324C0.131,-0.309 0.127,-0.293 0.125,-0.277L0.371,-0.277Z" style="fill:rgb(50,48,48);fill-rule:nonzero;"/>
        </g>
        <g transform="matrix(439.254427,0,0,439.254427,2736.767393,994.160969)">
            <path d="M0.107,-0L0.107,-0.439C0.175,-0.462 0.244,-0.474 0.313,-0.474C0.334,-0.474 0.355,-0.473 0.374,-0.472C0.393,-0.47 0.415,-0.466 0.438,-0.461L0.423,-0.388C0.402,-0.394 0.383,-0.398 0.366,-0.4C0.35,-0.401 0.332,-0.402 0.313,-0.402C0.272,-0.402 0.231,-0.396 0.189,-0.385L0.189,-0L0.107,-0Z" style="fill:rgb(50,48,48);fill-rule:nonzero;"/>
        </g>
    </g>
</svg>
