<svg xmlns="http://www.w3.org/2000/svg" viewBox="0 0 22 22">
  <g transform="translate(1,1)">
    <path fill="#3daee9" fill-opacity="1"
          d="M 6 2 L 6 6 L 8 6 L 8 2 L 6 2 z M 14 2 L 14 6 L 16 6 L 16 2 L 14 2 z M 4 7 L 4 9 L 6 9 L 6 7 L 4 7 z M 16 7 L 16 9 L 18 9 L 18 7 L 16 7 z M 5 10 L 5 18 L 9 18 L 9 15 L 13 15 L 13 18 L 17 18 L 17 10 L 13 10 L 13 13 L 9 13 L 9 10 L 5 10 z "/>
    <circle cx="11" cy="11" r="2.5" fill="#3daee9" fill-opacity="0.9"/>
    <rect x="10" y="13" width="2" height="3" fill="#3daee9" fill-opacity="0.9"/>
  </g>
</svg>
